<?xml version="1.0" encoding="UTF-8" standalone="no"?>
<svg width="200px" height="200px" viewBox="0 0 200 200" version="1.1" xmlns="http://www.w3.org/2000/svg" xmlns:xlink="http://www.w3.org/1999/xlink" xmlns:sketch="http://www.bohemiancoding.com/sketch/ns">
    <!-- Generator: Sketch 3.3.3 (12072) - http://www.bohemiancoding.com/sketch -->
    <title>clever-pinned</title>
    <desc>Created with Sketch.</desc>
    <defs></defs>
    <g id="Page-1" stroke="none" stroke-width="1" fill="none" fill-rule="evenodd" sketch:type="MSPage">
        <g id="SVG-Pined-Tabs" sketch:type="MSArtboardGroup" transform="translate(-82.000000, -81.000000)" fill="#000000">
            <path d="M177.461237,130.459884 L160.060631,130.459884 C158.382991,130.459884 153.936043,129.201249 152.672595,126.264433 C149.945026,119.912006 152.672595,106.249566 169.06209,106.563424 C167.38124,104.886845 167.817908,91.5686878 177.888562,89.799232 C192.173382,87.2851637 194.278057,96.921892 195.535082,101.536889 C206.045615,98.6032753 212.769016,101.115742 216.132322,111.173617 C218.293186,117.657351 216.10182,123.790397 213.029091,127.332511 C211.335397,129.292524 208.184003,130.459884 206.541682,130.459884 L183.586179,130.459884 L179.816322,134.218016 L177.461237,130.459884 Z M107.001381,81 C93.1934997,81 82,92.1994381 82,106.001381 L82,255.998619 C82,269.8065 93.1994381,281 107.001381,281 L256.998619,281 C270.8065,281 282,269.800562 282,255.998619 L282,106.001381 C282,92.1934997 270.800562,81 256.998619,81 L107.001381,81 Z M180.892419,140.438654 L175.975089,140.438654 C175.975089,140.438654 175.405173,140.819768 175.596216,141.383431 L175.780836,141.948696 L176.355568,149.498908 C176.355568,149.498908 175.596216,149.87842 175.405173,151.197906 C175.217342,152.518993 176.731231,156.107545 176.731231,156.107545 C176.731231,156.107545 176.355568,212.051171 176.355568,212.209701 C176.244796,227.878593 154.334341,237.691466 154.851279,256.546979 C155.228547,270.383962 167.513043,271.660213 178.615967,271.660213 C187.774755,271.660213 202.868695,273.024535 206.140494,261.999465 C212.894398,239.259155 185.554491,230.274163 185.432481,212.209701 C185.432481,212.051171 185.056819,156.107545 185.056819,156.107545 C185.056819,156.107545 186.570708,152.518993 186.382876,151.197906 C186.191834,149.87842 185.432481,149.498908 185.432481,149.498908 L186.004003,141.948696 L186.191834,141.383431 C186.382876,140.819768 185.811355,140.438654 185.811355,140.438654 L180.892419,140.438654 Z" id="Rectangle-2" sketch:type="MSShapeGroup"></path>
        </g>
    </g>
</svg>