<svg xmlns="http://www.w3.org/2000/svg" xmlns:xlink="http://www.w3.org/1999/xlink" width="77" height="78" xmlns:v="https://vecta.io/nano"><defs><linearGradient id="A" x1="12.766%" x2="116.938%" y1="2.334%" y2="130.122%"><stop offset="0%" stop-color="#9cb3ff"/><stop offset="100%" stop-color="#b0ffe9"/></linearGradient><ellipse id="B" cx="38.445" cy="38.515" rx="38.445" ry="38.515"/></defs><g fill="none" fill-rule="evenodd"><mask id="C" fill="#fff"><use xlink:href="#B"/></mask><use fill="url(#A)" xlink:href="#B"/><g mask="url(#C)"><g transform="translate(10.666 19.99)"><rect width="55.557" height="36.188" fill="#fff" rx="5.509"/><path fill="#f0edff" d="M0 8.006h10.508l6.668 8.612v19.82H5.514C2.47 36.44 0 33.97 0 30.926V8.006z"/><g stroke="#9dbafd" stroke-linejoin="round" stroke-width="3.636"><ellipse cx="16.796" cy="15.509" rx="5.168" ry="5.17"/><path stroke-linecap="round" d="M21.964 25.85a5.17 5.17 0 0 0-5.168-5.17 5.17 5.17 0 0 0-5.168 5.17"/></g></g></g><path fill="#3a6fbd" fill-rule="nonzero" d="M63.998 38.294c.35.468.51 1.05.447 1.63l-.017.156a7.29 7.29 0 0 0 4.258 7.42c1.197.54 1.73 1.945 1.192 3.142-.238.53-.662.954-1.192 1.192a7.29 7.29 0 0 0-4.258 7.42l.017.156c.135 1.27-.785 2.41-2.056 2.547-.58.062-1.163-.098-1.63-.447a7.1 7.1 0 0 0-8.496 0c-1.024.765-2.474.555-3.24-.47-.35-.468-.51-1.05-.447-1.63l.017-.156a7.29 7.29 0 0 0-4.258-7.42c-1.197-.54-1.73-1.945-1.192-3.142.238-.53.662-.954 1.192-1.192a7.29 7.29 0 0 0 4.258-7.42l-.017-.156c-.135-1.27.785-2.41 2.056-2.547.58-.062 1.163.098 1.63.447a7.1 7.1 0 0 0 8.496 0c1.024-.765 2.474-.555 3.24.47zm-7.487 8.093c-1.776 0-3.215 1.47-3.215 3.28s1.44 3.28 3.215 3.28 3.215-1.47 3.215-3.28-1.44-3.28-3.215-3.28z" mask="url(#C)"/></g></svg>