<svg xmlns="http://www.w3.org/2000/svg" xmlns:xlink="http://www.w3.org/1999/xlink" width="78" height="78" xmlns:v="https://vecta.io/nano"><defs><linearGradient id="A" x1="0%" x2="80.215%" y1="0%" y2="100%"><stop offset="0%" stop-color="#ff8989"/><stop offset="100%" stop-color="#ffddc5"/></linearGradient><circle id="B" cx="39" cy="39" r="39"/><rect id="C" width="40.616" height="28.581" rx="3.086"/><filter id="D" width="139.4%" height="156%" x="-29.5%" y="-14%"><feOffset dx="-8" dy="8" in="SourceAlpha"/><feColorMatrix values="0 0 0 0 0.219607843 0 0 0 0 0.37254902 0 0 0 0 0.623529412 0 0 0 0.1 0"/></filter></defs><g fill="none" fill-rule="evenodd"><mask id="E" fill="#fff"><use xlink:href="#B"/></mask><use fill="url(#A)" xlink:href="#B"/><g mask="url(#E)"><g transform="translate(18.598 24.521)"><use fill="#000" filter="url(#D)" xlink:href="#C"/><use fill="#fff" xlink:href="#C"/><path fill="#ffe2e0" d="M3.086 0H37.53c1.704 0 3.086 1.382 3.086 3.086V7.52H0V3.086C0 1.382 1.382 0 3.086 0z"/></g></g><path fill="#ed674f" d="M44.018 43.96c-.533-.533-.86-1.18-1.033-1.862l-3.3 3.3c-.4.4-.4 1.048 0 1.448l11.582 11.583c.4.4 1.048.4 1.448 0l11.583-11.583c.4-.4.4-1.047 0-1.448l-3.292-3.292c.663-.176 1.295-.502 1.816-1.023 1.6-1.6 1.6-4.192 0-5.79s-4.19-1.6-5.79 0c-.52.522-.847 1.152-1.023 1.815l-3.292-3.3c-.4-.4-1.047-.4-1.448 0l-3.3 3.31c.68.173 1.33.5 1.862 1.034 1.6 1.6 1.6 4.192 0 5.79s-4.192 1.6-5.79 0z" mask="url(#E)"/></g></svg>