<svg xmlns="http://www.w3.org/2000/svg" xmlns:xlink="http://www.w3.org/1999/xlink" width="47" height="47" viewBox="0 0 47 47">
  <defs>
    <linearGradient id="group-50-copy-b" x1="2.016%" x2="99.772%" y1="-11.596%" y2="100%">
      <stop offset="0%" stop-color="#FFAF73"/>
      <stop offset="100%" stop-color="#FFFECC"/>
    </linearGradient>
    <ellipse id="group-50-copy-a" cx="23.336" cy="23.389" rx="23.336" ry="23.389"/>
    <path id="group-50-copy-e" d="M2.28571429,0 L25.1309524,0 C26.3933175,-2.03021446e-15 27.4166667,1.02334914 27.4166667,2.28571429 L27.4166667,18.281296 C27.4166667,19.5436612 26.3933175,20.5670103 25.1309524,20.5670103 L2.28571429,20.5670103 C1.02334914,20.5670103 1.04277356e-15,19.5436612 0,18.281296 L0,2.28571429 C2.89494067e-16,1.02334914 1.02334914,1.12007113e-15 2.28571429,0 Z"/>
    <filter id="group-50-copy-d" width="143.8%" height="158.3%" x="-32.8%" y="-14.6%" filterUnits="objectBoundingBox">
      <feOffset dx="-6" dy="6" in="SourceAlpha" result="shadowOffsetOuter1"/>
      <feColorMatrix in="shadowOffsetOuter1" values="0 0 0 0 0.623529412   0 0 0 0 0.552671012   0 0 0 0 0.219607843  0 0 0 0.1 0"/>
    </filter>
  </defs>
  <g fill="none" fill-rule="evenodd">
    <mask id="group-50-copy-c" fill="#fff">
      <use xlink:href="#group-50-copy-a"/>
    </mask>
    <use fill="url(#group-50-copy-b)" xlink:href="#group-50-copy-a"/>
    <g mask="url(#group-50-copy-c)">
      <g transform="translate(10.097 11.99)">
        <g>
          <use fill="#000" filter="url(#group-50-copy-d)" xlink:href="#group-50-copy-e"/>
          <use fill="#FFF" xlink:href="#group-50-copy-e"/>
        </g>
        <text font-family="SourceSansPro-Black, Source Sans Pro" font-size="11" font-weight="700" letter-spacing=".206">
          <tspan x="5.05" y="15.753" fill="#ECAB62">API</tspan>
        </text>
        <path fill="#FFBB75" d="M2.28571429,0 L25.1309524,0 C26.3933175,2.12196495e-16 27.4166667,1.02334914 27.4166667,2.28571429 L27.4166667,4.89690722 L27.4166667,4.89690722 L0,4.89690722 L0,2.28571429 C-1.54595143e-16,1.02334914 1.02334914,1.12007113e-15 2.28571429,0 Z"/>
      </g>
    </g>
  </g>
</svg>
