<svg xmlns="http://www.w3.org/2000/svg" xmlns:xlink="http://www.w3.org/1999/xlink" width="78" height="78" xmlns:v="https://vecta.io/nano"><defs><linearGradient id="A" x1="12.741%" x2="116.982%" y1="2.334%" y2="130.122%"><stop offset="0%" stop-color="#9cb3ff"/><stop offset="100%" stop-color="#b0ffe9"/></linearGradient><ellipse id="B" cx="38.797" cy="38.855" rx="38.797" ry="38.855"/><path id="C" d="M2.823 0h23.25c1.56 0 2.823 1.264 2.823 2.823V41.13c0 1.62-1.313 2.933-2.933 2.933H2.933C1.313 44.062 0 42.75 0 41.13V2.823C0 1.264 1.264 0 2.823 0z"/><filter id="D" width="155.4%" height="136.3%" x="-41.5%" y="-9.1%"><feOffset dx="-8" dy="8" in="SourceAlpha"/><feColorMatrix values="0 0 0 0 0.356862745 0 0 0 0 0.31372549 0 0 0 0 0.760784314 0 0 0 0.1 0"/></filter></defs><g fill="none" fill-rule="evenodd"><mask id="E" fill="#fff"><use xlink:href="#B"/></mask><use fill="url(#A)" xlink:href="#B"/><g mask="url(#E)"><g transform="translate(22.796 15.902)"><g transform="translate(.889)"><g transform="translate(.446 .238)"><use fill="#000" filter="url(#D)" xlink:href="#C"/><use fill="#fff" xlink:href="#C"/></g><path fill="#f0edff" d="M6.022 4.117h17.502c1.56 0 2.823 1.264 2.823 2.823v30.407c0 1.56-1.264 2.823-2.823 2.823H6.022c-1.56 0-2.823-1.264-2.823-2.823V6.94c0-1.56 1.264-2.823 2.823-2.823z"/><path stroke="#9dbafd" stroke-width="1.412" d="M10.272 39.483H20.34"/></g><path fill="#3a6fbd" fill-rule="nonzero" d="M39.387 25.654c.312.417.454.937.4 1.455l-.015.137c-.298 2.797 1.235 5.47 3.8 6.623a2.12 2.12 0 0 1 0 3.868c-2.565 1.154-4.1 3.826-3.8 6.623l.015.137c.12 1.135-.7 2.153-1.835 2.274-.518.055-1.038-.087-1.455-.4a6.34 6.34 0 0 0-7.585 0c-.914.683-2.21.495-2.892-.42-.312-.417-.454-.937-.4-1.455l.015-.137c.298-2.797-1.235-5.47-3.8-6.623a2.12 2.12 0 0 1 0-3.868c2.565-1.154 4.1-3.826 3.8-6.623l-.015-.137c-.12-1.135.7-2.153 1.835-2.274.518-.055 1.038.087 1.455.4a6.34 6.34 0 0 0 7.585 0c.914-.683 2.21-.495 2.892.42zm-6.684 7.222c-1.585 0-2.87 1.31-2.87 2.927s1.285 2.927 2.87 2.927 2.87-1.31 2.87-2.927-1.285-2.927-2.87-2.927z"/></g></g></g></svg>