<svg xmlns="http://www.w3.org/2000/svg" xmlns:xlink="http://www.w3.org/1999/xlink" width="78" height="78" xmlns:v="https://vecta.io/nano"><defs><linearGradient id="A" x1="83.526%" x2="-20.2%" y1="100%" y2="-14.116%"><stop offset="0%" stop-color="#e7d1ff"/><stop offset="100%" stop-color="#8383ef"/></linearGradient><ellipse id="B" cx="38.728" cy="38.808" rx="38.728" ry="38.808"/><path id="C" d="M33.912 28.018h45.313c2.295 0 4.156 1.86 4.156 4.156v45.313c0 2.295-1.86 4.156-4.156 4.156H33.912c-2.295 0-4.156-1.86-4.156-4.156V32.174c0-2.295 1.86-4.156 4.156-4.156z"/><filter id="D" width="144.8%" height="152.2%" x="-31.7%" y="-13.1%"><feOffset dx="-8" dy="12" in="SourceAlpha"/><feGaussianBlur stdDeviation="1"/><feColorMatrix values="0 0 0 0 0 0 0 0 0 0 0 0 0 0 0 0 0 0 0.0431872815 0"/></filter></defs><g fill="none" fill-rule="evenodd"><mask id="E" fill="#fff"><use xlink:href="#B"/></mask><use fill="url(#A)" xlink:href="#B"/><g mask="url(#E)"><use fill="#000" filter="url(#D)" xlink:href="#C"/><use fill="#404040" xlink:href="#C"/></g><path stroke="#b6b0f5" stroke-linecap="round" stroke-linejoin="round" stroke-width="3.636" mask="url(#E)" d="M42.354 45.5l4.77 4.822-4.875 4.928"/><path fill="#dedbff" d="M33.912 28.018h45.313c2.295 0 4.156 1.86 4.156 4.156v3.97H29.757v-3.97c0-2.295 1.86-4.156 4.156-4.156z" mask="url(#E)"/><path stroke="#b6b0f5" stroke-linecap="round" stroke-linejoin="round" stroke-width="3.636" mask="url(#E)" opacity=".7" d="M53.625 61.75h26"/></g></svg>