<svg xmlns="http://www.w3.org/2000/svg" xmlns:xlink="http://www.w3.org/1999/xlink" width="78" height="78" xmlns:v="https://vecta.io/nano"><defs><linearGradient id="A" x1=".207%" x2="80.091%" y1="0%" y2="100%"><stop offset="0%" stop-color="#ff8989"/><stop offset="100%" stop-color="#ffddc5"/></linearGradient><ellipse id="B" cx="38.728" cy="38.808" rx="38.728" ry="38.808"/><path id="C" d="M14.412 39.393h48.015c2.295 0 4.156 1.86 4.156 4.156V87.38c0 2.295-1.86 4.156-4.156 4.156H14.412c-2.295 0-4.156-1.86-4.156-4.156V43.55c0-2.295 1.86-4.156 4.156-4.156z"/><filter id="D" width="130.2%" height="138.4%" x="-21.3%" y="-9.6%"><feOffset dx="-6" dy="9" in="SourceAlpha"/><feGaussianBlur stdDeviation=".5"/><feColorMatrix values="0 0 0 0 0 0 0 0 0 0 0 0 0 0 0 0 0 0 0.0431872815 0"/></filter></defs><g fill="none" fill-rule="evenodd"><mask id="E" fill="#fff"><use xlink:href="#B"/></mask><use fill="url(#A)" xlink:href="#B"/><g mask="url(#E)" opacity=".8"><use fill="#000" filter="url(#D)" xlink:href="#C"/><use fill="#fff" xlink:href="#C"/></g><path fill="#f5978b" d="M14.412 39.393h48.015c2.295 0 4.156 1.86 4.156 4.156v4.35H10.257v-4.35c0-2.295 1.86-4.156 4.156-4.156z" mask="url(#E)"/><path fill="#ed674f" d="M49.035 22.88c.482.646.703 1.45.617 2.25l-.023.212c-.46 4.328 1.91 8.46 5.88 10.246a3.28 3.28 0 0 1 0 5.985c-3.97 1.785-6.34 5.92-5.88 10.246l.023.212c.187 1.755-1.084 3.33-2.84 3.517-.8.085-1.606-.135-2.25-.617-3.48-2.598-8.255-2.598-11.734 0-1.415 1.056-3.418.766-4.474-.65-.482-.646-.703-1.45-.617-2.25l.023-.212c.46-4.328-1.91-8.46-5.88-10.246a3.28 3.28 0 0 1 0-5.985c3.97-1.785 6.34-5.92 5.88-10.246l-.023-.212c-.187-1.755 1.084-3.33 2.84-3.517.8-.085 1.606.135 2.25.617 3.48 2.598 8.255 2.598 11.734 0 1.415-1.056 3.418-.766 4.474.65zm-10.34 11.173c-2.452 0-4.44 2.028-4.44 4.53s1.988 4.53 4.44 4.53 4.44-2.028 4.44-4.53-1.988-4.53-4.44-4.53z" mask="url(#E)"/></g></svg>