<svg xmlns="http://www.w3.org/2000/svg" xmlns:xlink="http://www.w3.org/1999/xlink" width="47" height="47" viewBox="0 0 47 47">
  <defs>
    <linearGradient id="group-50-copy-2-b" x1="83.511%" x2="-20.169%" y1="100%" y2="-14.116%">
      <stop offset="0%" stop-color="#E7D1FF"/>
      <stop offset="100%" stop-color="#8383EF"/>
    </linearGradient>
    <ellipse id="group-50-copy-2-a" cx="23.336" cy="23.389" rx="23.336" ry="23.389"/>
    <path id="group-50-copy-2-e" d="M20.423776,16.8864317 L47.7492633,16.8864317 C49.1263888,16.8864317 50.2427696,18.0028125 50.2427696,19.379938 L50.2427696,46.7125129 C50.2427696,48.0896385 49.1263888,49.2060193 47.7492633,49.2060193 L20.423776,49.2060193 C19.0466504,49.2060193 17.9302696,48.0896385 17.9302696,46.7125129 L17.9302696,19.379938 C17.9302696,18.0028125 19.0466504,16.8864317 20.423776,16.8864317 Z"/>
    <filter id="group-50-copy-2-d" width="143.3%" height="149.5%" x="-30.9%" y="-12.4%" filterUnits="objectBoundingBox">
      <feOffset dx="-5" dy="7" in="SourceAlpha" result="shadowOffsetOuter1"/>
      <feGaussianBlur in="shadowOffsetOuter1" result="shadowBlurOuter1" stdDeviation=".5"/>
      <feColorMatrix in="shadowBlurOuter1" values="0 0 0 0 0   0 0 0 0 0   0 0 0 0 0  0 0 0 0.0431872815 0"/>
    </filter>
  </defs>
  <g fill="none" fill-rule="evenodd">
    <mask id="group-50-copy-2-c" fill="#fff">
      <use xlink:href="#group-50-copy-2-a"/>
    </mask>
    <use fill="url(#group-50-copy-2-b)" xlink:href="#group-50-copy-2-a"/>
    <g mask="url(#group-50-copy-2-c)" opacity=".8">
      <use fill="#000" filter="url(#group-50-copy-2-d)" xlink:href="#group-50-copy-2-e"/>
      <use fill="#FFF" xlink:href="#group-50-copy-2-e"/>
    </g>
    <polyline stroke="#B6B0F5" stroke-linecap="round" stroke-linejoin="round" stroke-width="2.182" points="25.521 27.423 28.396 30.329 25.458 33.299" mask="url(#group-50-copy-2-c)"/>
    <path fill="#DEDBFF" d="M20.423776,16.8864317 L47.7492633,16.8864317 C49.1263888,16.8864317 50.2427696,18.0028125 50.2427696,19.379938 L50.2427696,21.7833389 L50.2427696,21.7833389 L17.9302696,21.7833389 L17.9302696,19.379938 C17.9302696,18.0028125 19.0466504,16.8864317 20.423776,16.8864317 Z" mask="url(#group-50-copy-2-c)"/>
    <line x1="32.313" x2="47.979" y1="37.216" y2="37.216" stroke="#B6B0F5" stroke-linecap="round" stroke-linejoin="round" stroke-width="2.182" mask="url(#group-50-copy-2-c)" opacity=".7"/>
  </g>
</svg>
