<svg xmlns="http://www.w3.org/2000/svg" xmlns:xlink="http://www.w3.org/1999/xlink" width="48" height="48" viewBox="0 0 48 48">
  <defs>
    <linearGradient id="group-50-copy-3-b" x1=".228%" x2="80.077%" y1="0%" y2="100%">
      <stop offset="0%" stop-color="#FF8989"/>
      <stop offset="100%" stop-color="#FFDDC5"/>
    </linearGradient>
    <ellipse id="group-50-copy-3-a" cx="23.336" cy="23.389" rx="23.336" ry="23.389"/>
    <rect id="group-50-copy-3-e" width="51.896" height="51.907" x="22.521" y="23.505"/>
    <filter id="group-50-copy-3-d" width="132.8%" height="138.5%" x="-23.1%" y="-9.6%" filterUnits="objectBoundingBox">
      <feOffset dx="-6" dy="9" in="SourceAlpha" result="shadowOffsetOuter1"/>
      <feGaussianBlur in="shadowOffsetOuter1" result="shadowBlurOuter1" stdDeviation=".5"/>
      <feColorMatrix in="shadowBlurOuter1" values="0 0 0 0 0   0 0 0 0 0   0 0 0 0 0  0 0 0 0.0431872815 0"/>
    </filter>
  </defs>
  <g fill="none" fill-rule="evenodd" transform="translate(.5 .515)">
    <mask id="group-50-copy-3-c" fill="#fff">
      <use xlink:href="#group-50-copy-3-a"/>
    </mask>
    <use fill="url(#group-50-copy-3-b)" xlink:href="#group-50-copy-3-a"/>
    <g mask="url(#group-50-copy-3-c)" opacity=".8">
      <use fill="#000" filter="url(#group-50-copy-3-d)" xlink:href="#group-50-copy-3-e"/>
      <use fill="#FFF" xlink:href="#group-50-copy-3-e"/>
    </g>
    <line x1="29.933" x2="40.146" y1="33.633" y2="33.633" stroke="#FFB6AD" mask="url(#group-50-copy-3-c)"/>
    <line x1="29.933" x2="36.229" y1="39.51" y2="39.51" stroke="#FFB6AD" mask="url(#group-50-copy-3-c)"/>
    <g mask="url(#group-50-copy-3-c)">
      <g transform="translate(10.607 13.711)">
        <path fill="#ED674F" d="M4,7.82878916e-14 L21.4583333,7.82878916e-14 C23.6674723,7.74379902e-14 25.4583333,1.790861 25.4583333,4 L25.4583333,13.628866 C25.4583333,15.838005 23.6674723,17.628866 21.4583333,17.628866 L20.4169941,17.628866 L20.4169941,17.628866 L20.4169941,21.0506072 C20.4169941,21.602892 19.9692788,22.0506072 19.4169941,22.0506072 C19.0845471,22.0506072 18.7738358,21.8853936 18.5879413,21.6097775 L15.9029405,17.628866 L15.9029405,17.628866 L4,17.628866 C1.790861,17.628866 -4.68702353e-15,15.838005 0,13.628866 L0,4 C-7.1463071e-16,1.790861 1.790861,7.73614363e-14 4,7.82878916e-14 Z"/>
        <path fill="#FFF" fill-rule="nonzero" d="M5.61841381,12.2650603 L5.61841381,9.85371601 L7.42757726,9.85371601 L7.42757726,8.64593973 L5.61841381,8.64593973 L5.61841381,7.43816344 L8.63508868,7.43816344 L8.63508868,6.23038716 L4.41090239,6.23038716 L4.41090239,12.2650603 L5.61841381,12.2650603 Z M10.3625284,12.2650603 L10.3625284,11.057284 L12.7775513,11.057284 L12.7775513,12.2650603 L13.9850627,12.2650603 L13.9850627,8.64593973 C13.9850627,8.31208287 13.9219523,7.99856603 13.7957316,7.70538921 C13.6695109,7.41221238 13.4970093,7.1562087 13.2782267,6.93737816 C13.0594442,6.71854761 12.8034966,6.54600814 12.5103841,6.41975975 C12.2172716,6.29351136 11.9038235,6.23038716 11.5700399,6.23038716 C11.2362562,6.23038716 10.9228081,6.29351136 10.6296956,6.41975975 C10.3365831,6.54600814 10.0813367,6.71854761 9.86395664,6.93737816 C9.64657654,7.1562087 9.47477613,7.41221238 9.34855543,7.70538921 C9.22233472,7.99856603 9.15922437,8.31208287 9.15922437,8.64593973 L9.15922437,8.64593973 L9.15922437,12.2650603 L10.3625284,12.2650603 Z M12.7775513,9.85371601 L10.3625284,9.85371601 L10.3625284,8.64593973 C10.3625284,8.48041406 10.3940836,8.32400633 10.457194,8.17671654 C10.5203043,8.02942675 10.6065551,7.90107421 10.7159464,7.79165894 C10.8253377,7.68224367 10.9536621,7.59597393 11.1009196,7.53284974 C11.2481771,7.46972554 11.4045505,7.43816344 11.5700399,7.43816344 C11.7355292,7.43816344 11.8919027,7.46972554 12.0391601,7.53284974 C12.1864176,7.59597393 12.314742,7.68224367 12.4241333,7.79165894 C12.5335246,7.90107421 12.6197754,8.02942675 12.6828857,8.17671654 C12.7459961,8.32400633 12.7775513,8.48041406 12.7775513,8.64593973 L12.7775513,8.64593973 L12.7775513,9.85371601 Z M20.2396184,13.4728366 L19.3055852,12.0756877 C19.5692462,11.9438283 19.8083643,11.7797054 20.0229395,11.583319 C20.2375147,11.3869326 20.4205348,11.1674007 20.5719996,10.9247232 C20.7234645,10.6820457 20.8405692,10.420431 20.9233139,10.139879 C21.0060586,9.85932705 21.0474309,9.57035851 21.0474309,9.27297341 C21.0474309,8.98681038 21.010266,8.71046668 20.935936,8.4439423 C20.861606,8.17741792 20.7571233,7.92912941 20.6224879,7.69907679 C20.4878525,7.46902416 20.325168,7.25861017 20.1344345,7.06783483 C19.943701,6.87705948 19.7333331,6.71433933 19.503331,6.57967438 C19.2733288,6.44500943 19.0250947,6.34050381 18.7586288,6.26615754 C18.4921629,6.19181126 18.2158798,6.15463813 17.9297795,6.15463813 C17.6436792,6.15463813 17.3680974,6.19181126 17.1030339,6.26615754 C16.8379704,6.34050381 16.5897363,6.44500943 16.3583317,6.57967438 C16.1269271,6.71433933 15.915858,6.87705948 15.7251245,7.06783483 C15.534391,7.25861017 15.3710053,7.46902416 15.2349674,7.69907679 C15.0989296,7.92912941 14.9937456,8.17741792 14.9194157,8.4439423 C14.8450857,8.71046668 14.8079207,8.98681038 14.8079207,9.27297341 C14.8079207,9.55913643 14.8450857,9.83477875 14.9194157,10.0999004 C14.9937456,10.365022 15.0989296,10.6133105 15.2349674,10.8447659 C15.3710053,11.0762213 15.534391,11.2873366 15.7251245,11.478112 C15.915858,11.6688873 16.1269271,11.8323089 16.3583317,11.9683766 C16.5897363,12.1044443 16.8379704,12.2096513 17.1030339,12.2839976 C17.3680974,12.3583438 17.6436792,12.395517 17.9297795,12.395517 L17.9297795,12.395517 L18.0328598,12.395517 C18.0679211,12.395517 18.105086,12.3927114 18.1443547,12.3871004 L18.1443547,12.3871004 L18.8680201,13.4728366 L20.2396184,13.4728366 Z M17.9297795,11.1877407 C17.6633136,11.1877407 17.4136771,11.1372413 17.18087,11.0362426 C16.9480629,10.9352439 16.7447073,10.7977734 16.5708032,10.6238312 C16.3968992,10.449889 16.2594588,10.2471902 16.1584823,10.0157348 C16.0575057,9.78427939 16.0070174,9.53669227 16.0070174,9.27297341 C16.0070174,9.00925454 16.0575057,8.76026466 16.1584823,8.52600375 C16.2594588,8.29174285 16.3968992,8.08834266 16.5708032,7.91580319 C16.7447073,7.74326372 16.9480629,7.60649463 17.18087,7.50549592 C17.4136771,7.40449721 17.6633136,7.35399785 17.9297795,7.35399785 C18.1934405,7.35399785 18.4423758,7.40449721 18.6765854,7.50549592 C18.9107949,7.60649463 19.1141505,7.74326372 19.2866521,7.91580319 C19.4591537,8.08834266 19.5958928,8.29174285 19.6968694,8.52600375 C19.797846,8.76026466 19.8483342,9.00925454 19.8483342,9.27297341 C19.8483342,9.53669227 19.797846,9.78427939 19.6968694,10.0157348 C19.5958928,10.2471902 19.4591537,10.449889 19.2866521,10.6238312 C19.1141505,10.7977734 18.9107949,10.9352439 18.6765854,11.0362426 C18.4423758,11.1372413 18.1934405,11.1877407 17.9297795,11.1877407 Z"/>
      </g>
    </g>
  </g>
</svg>
