<svg xmlns="http://www.w3.org/2000/svg" xmlns:xlink="http://www.w3.org/1999/xlink" width="47" height="47" viewBox="0 0 47 47">
  <defs>
    <linearGradient id="group-50-b" x1="12.8%" x2="116.877%" y1="2.334%" y2="130.122%">
      <stop offset="0%" stop-color="#9CB3FF"/>
      <stop offset="100%" stop-color="#B0FFE9"/>
    </linearGradient>
    <ellipse id="group-50-a" cx="23.336" cy="23.389" rx="23.336" ry="23.389"/>
    <path id="group-50-e" d="M8.67377595,23.7421018 L37.6269669,23.7421018 C39.0040925,23.7421018 40.1204733,24.8584826 40.1204733,26.2356081 L40.1204733,52.675291 C40.1204733,54.0524166 39.0040925,55.1687974 37.6269669,55.1687974 L8.67377595,55.1687974 C7.29665042,55.1687974 6.18026961,54.0524166 6.18026961,52.675291 L6.18026961,26.2356081 C6.18026961,24.8584826 7.29665042,23.7421018 8.67377595,23.7421018 Z"/>
    <filter id="group-50-d" width="138.3%" height="150.9%" x="-26.5%" y="-12.7%" filterUnits="objectBoundingBox">
      <feOffset dx="-4" dy="7" in="SourceAlpha" result="shadowOffsetOuter1"/>
      <feGaussianBlur in="shadowOffsetOuter1" result="shadowBlurOuter1" stdDeviation=".5"/>
      <feColorMatrix in="shadowBlurOuter1" values="0 0 0 0 0   0 0 0 0 0   0 0 0 0 0  0 0 0 0.0554250437 0"/>
    </filter>
  </defs>
  <g fill="none" fill-rule="evenodd">
    <mask id="group-50-c" fill="#fff">
      <use xlink:href="#group-50-a"/>
    </mask>
    <use fill="url(#group-50-b)" xlink:href="#group-50-a"/>
    <g mask="url(#group-50-c)" opacity=".8">
      <use fill="#000" filter="url(#group-50-d)" xlink:href="#group-50-e"/>
      <use fill="#FFF" xlink:href="#group-50-e"/>
    </g>
    <path fill="#75A3DB" d="M8.67377595,23.7421018 L37.6269669,23.7421018 C39.0040925,23.7421018 40.1204733,24.8584826 40.1204733,26.2356081 L40.1204733,28.8679549 L40.1204733,28.8679549 L6.18026961,28.8679549 L6.18026961,26.2356081 C6.18026961,24.8584826 7.29665042,23.7421018 8.67377595,23.7421018 Z" mask="url(#group-50-c)"/>
    <path fill="#3A6FBD" fill-rule="nonzero" d="M29.5467364,13.7886045 C29.8373706,14.1777386 29.9702583,14.662309 29.9187837,15.1452624 L29.9050414,15.2741974 C29.6270988,17.8819564 31.0565001,20.3730223 33.4481702,21.4489279 C34.4442065,21.8970001 34.8884191,23.0676813 34.4403469,24.0637176 C34.2420135,24.5046001 33.8890527,24.8575609 33.4481702,25.0558942 C31.0565001,26.1317998 29.6270988,28.6228657 29.9050414,31.2306247 L29.9187837,31.3595597 C30.0315195,32.4172886 29.2654513,33.3661377 28.2077224,33.4788736 C27.7247691,33.5303481 27.2401986,33.3974605 26.8510645,33.1068263 C24.7542801,31.5407922 21.8770924,31.5407922 19.780308,33.1068263 C18.9280552,33.7433519 17.7211618,33.5684704 17.0846362,32.7162176 C16.794002,32.3270835 16.6611143,31.8425131 16.7125889,31.3595597 L16.7263311,31.2306247 C17.0042737,28.6228657 15.5748725,26.1317998 13.1832023,25.0558942 C12.1871661,24.607822 11.7429535,23.4371408 12.1910257,22.4411045 C12.389359,22.000222 12.7423198,21.6472612 13.1832023,21.4489279 C15.5748725,20.3730223 17.0042737,17.8819564 16.7263311,15.2741974 L16.7125889,15.1452624 C16.599853,14.0875335 17.3659213,13.1386844 18.4236501,13.0259485 C18.9066035,12.9744739 19.3911739,13.1073616 19.780308,13.3979958 C21.8770924,14.9640299 24.7542801,14.9640299 26.8510645,13.3979958 C27.7033174,12.7614702 28.9102108,12.9363517 29.5467364,13.7886045 Z M23.3156863,20.5228149 C21.8380918,20.5228149 20.6402649,21.7448967 20.6402649,23.252411 C20.6402649,24.7599254 21.8380918,25.9820072 23.3156863,25.9820072 C24.7932807,25.9820072 25.9911077,24.7599254 25.9911077,23.252411 C25.9911077,21.7448967 24.7932807,20.5228149 23.3156863,20.5228149 Z" mask="url(#group-50-c)"/>
  </g>
</svg>
