<svg xmlns="http://www.w3.org/2000/svg" xmlns:xlink="http://www.w3.org/1999/xlink" width="78" height="78" xmlns:v="https://vecta.io/nano"><defs><linearGradient id="A" x1=".207%" x2="80.091%" y1="0%" y2="100%"><stop offset="0%" stop-color="#ff8989"/><stop offset="100%" stop-color="#ffddc5"/></linearGradient><ellipse id="B" cx="38.728" cy="38.808" rx="38.728" ry="38.808"/><path id="C" d="M37.375 39H123.5v86.125H37.375z"/><filter id="D" width="133.7%" height="139.5%" x="-23.8%" y="-9.9%"><feOffset dx="-10" dy="15" in="SourceAlpha"/><feGaussianBlur stdDeviation="1"/><feColorMatrix values="0 0 0 0 0 0 0 0 0 0 0 0 0 0 0 0 0 0 0.0431872815 0"/></filter></defs><g fill="none" fill-rule="evenodd"><mask id="E" fill="#fff"><use xlink:href="#B"/></mask><use fill="url(#A)" xlink:href="#B"/><g mask="url(#E)" opacity=".8"><use fill="#000" filter="url(#D)" xlink:href="#C"/><use fill="#fff" xlink:href="#C"/></g><path mask="url(#E)" d="M49.677 55.805h16.948m-16.948 9.75h10.448" stroke="#ffb6ad" stroke-linecap="round" stroke-linejoin="round" stroke-width="3.64"/><g mask="url(#E)"><g transform="translate(17.603 22.75)"><path fill="#ed674f" d="M6.667 0h28.917a6.67 6.67 0 0 1 6.667 6.667v15.917a6.67 6.67 0 0 1-6.667 6.667h-1.7v5.654c0 .92-.746 1.667-1.667 1.667-.554 0-1.072-.275-1.382-.735l-4.443-6.586H6.667A6.67 6.67 0 0 1 0 22.583V6.667A6.67 6.67 0 0 1 6.667 0z"/><g transform="translate(9.912 12.675)" fill="#fff"><circle cx="2.534" cy="2.534" r="2.534"/><circle cx="10.791" cy="2.534" r="2.534"/><circle cx="19.047" cy="2.534" r="2.534"/></g></g></g></g></svg>